<svg xmlns="http://www.w3.org/2000/svg" version="1.1" xmlns:xlink="http://www.w3.org/1999/xlink" xmlns:svgjs="http://svgjs.com/svgjs" width="1000" height="1000"><rect width="1000" height="1000" rx="200" ry="200" fill="#f8dedf"></rect><g transform="matrix(2.8125,0,0,2.8125,48.06535482406616,63.33964157104492)"><svg xmlns="http://www.w3.org/2000/svg" version="1.1" xmlns:xlink="http://www.w3.org/1999/xlink" xmlns:svgjs="http://svgjs.com/svgjs" width="320" height="320"><svg xmlns="http://www.w3.org/2000/svg" xmlns:xlink="http://www.w3.org/1999/xlink" width="320" zoomAndPan="magnify" viewBox="0 0 240 239.999995" height="320" preserveAspectRatio="xMidYMid meet" version="1.0"><defs><g></g></defs><g fill="#000000" fill-opacity="1"><g transform="translate(37.373808, 161.295834)"><g><path d="M 40.664062 59.757812 C 45.613281 60.464844 54.277344 60.285156 59.757812 59.226562 C 75.84375 56.574219 90.871094 49.679688 107.667969 38.363281 C 119.335938 30.230469 129.238281 21.570312 140.375 9.722656 C 150.628906 -1.238281 158.40625 -10.960938 166.894531 -24.042969 L 164.242188 -25.636719 C 163.710938 -24.75 163.179688 -23.867188 162.652344 -23.160156 C 148.152344 -2.121094 131.535156 15.910156 114.5625 29.171875 C 94.40625 44.730469 75.667969 53.921875 57.636719 56.925781 C 52.507812 57.636719 44.199219 57.8125 40.484375 57.105469 C 32.53125 55.511719 26.164062 52.152344 20.507812 46.496094 C 14.144531 39.957031 10.078125 31.644531 7.957031 20.332031 C 7.425781 16.796875 6.71875 5.65625 7.070312 1.589844 C 8.664062 -24.574219 19.269531 -49.679688 36.597656 -68.417969 C 42.605469 -75.136719 49.324219 -80.972656 55.160156 -84.683594 C 58.871094 -87.160156 64.707031 -90.164062 67.535156 -91.226562 L 70.011719 -92.109375 L 73.898438 -91.578125 C 79.378906 -91.050781 80.792969 -91.050781 81.679688 -91.757812 C 82.5625 -92.464844 82.5625 -92.816406 81.503906 -93.699219 C 79.558594 -95.46875 74.605469 -96 69.125 -95.292969 C 66.296875 -94.761719 65.945312 -94.761719 63.117188 -95.113281 C 55.335938 -96.175781 51.976562 -99.359375 50.738281 -106.078125 C 48.796875 -116.507812 56.925781 -131.886719 69.304688 -141.613281 C 74.078125 -145.5 80.085938 -148.507812 85.039062 -149.921875 C 88.21875 -150.804688 93.523438 -150.980469 95.824219 -150.097656 C 99.359375 -148.859375 102.1875 -146.5625 104.132812 -143.558594 C 105.898438 -140.550781 106.429688 -139.3125 106.605469 -135.425781 C 106.785156 -132.066406 106.429688 -129.765625 105.191406 -126.761719 C 104.660156 -125.523438 104.660156 -125.523438 105.191406 -125.171875 C 105.371094 -124.816406 106.253906 -124.816406 106.960938 -124.816406 C 108.019531 -124.816406 108.375 -124.816406 109.257812 -125.699219 C 110.671875 -126.9375 112.265625 -130.472656 112.617188 -132.949219 C 113.148438 -135.601562 112.617188 -139.84375 111.910156 -142.320312 C 110.671875 -145.148438 108.550781 -147.800781 106.429688 -149.566406 C 102.363281 -152.394531 97.945312 -153.8125 91.757812 -153.8125 L 86.804688 -153.8125 C 74.785156 -152.394531 61.878906 -144.617188 53.570312 -134.011719 C 47.027344 -125.523438 43.84375 -117.566406 43.667969 -110.144531 C 43.667969 -106.605469 44.375 -103.953125 45.789062 -101.480469 C 48.265625 -96.707031 52.507812 -94.40625 60.640625 -92.992188 C 60.992188 -92.992188 60.464844 -92.640625 59.050781 -91.933594 C 48.617188 -87.160156 39.777344 -80.617188 30.585938 -70.894531 C 15.734375 -54.984375 6.011719 -35.710938 1.945312 -14.320312 C -0.175781 -3.359375 -0.707031 8.664062 0.882812 18.03125 C 4.417969 41.898438 18.917969 56.925781 40.664062 59.757812 Z M 40.664062 59.757812 "></path></g></g></g></svg></svg></g></svg>