<svg xmlns="http://www.w3.org/2000/svg" xmlns:xlink="http://www.w3.org/1999/xlink" width="100" zoomAndPan="magnify" viewBox="0 0 75 30.000001" height="40" preserveAspectRatio="xMidYMid meet" version="1.0"><defs><clipPath id="82197554fc"><path d="M 11.039062 9.597656 L 25.558594 9.597656 L 25.558594 24.113281 L 11.039062 24.113281 Z M 11.039062 9.597656 " clip-rule="nonzero"/></clipPath><clipPath id="30d5d77145"><path d="M 50.5625 16.296875 L 60.722656 16.296875 L 60.722656 26.460938 L 50.5625 26.460938 Z M 50.5625 16.296875 " clip-rule="nonzero"/></clipPath><clipPath id="db98cef5b3"><path d="M 36.21875 9.597656 L 50.734375 9.597656 L 50.734375 24.113281 L 36.21875 24.113281 Z M 36.21875 9.597656 " clip-rule="nonzero"/></clipPath><clipPath id="3002e4ddb8"><path d="M 25.144531 2.898438 L 38.210938 2.898438 L 38.210938 15.960938 L 25.144531 15.960938 Z M 25.144531 2.898438 " clip-rule="nonzero"/></clipPath><clipPath id="2ef92d899c"><path d="M 60.390625 7.8125 L 73.453125 7.8125 L 73.453125 20.878906 L 60.390625 20.878906 Z M 60.390625 7.8125 " clip-rule="nonzero"/></clipPath><clipPath id="0f0b7936fe"><path d="M 1.210938 9.597656 L 11.371094 9.597656 L 11.371094 19.757812 L 1.210938 19.757812 Z M 1.210938 9.597656 " clip-rule="nonzero"/></clipPath></defs><g clip-path="url(#82197554fc)"><path fill="#b83b66" d="M 18.296875 9.597656 C 17.589844 15.574219 17.019531 16.148438 11.039062 16.855469 C 11.054688 16.859375 11.066406 16.859375 11.078125 16.859375 C 17.019531 17.566406 17.59375 18.148438 18.296875 24.113281 C 19.007812 18.136719 19.578125 17.5625 25.558594 16.855469 C 19.578125 16.148438 19.007812 15.574219 18.296875 9.597656 Z M 18.296875 9.597656 " fill-opacity="1" fill-rule="nonzero"/></g><g clip-path="url(#30d5d77145)"><path fill="#f4e6ec" d="M 55.644531 16.296875 C 55.148438 20.480469 54.746094 20.882812 50.5625 21.378906 C 50.570312 21.378906 50.582031 21.378906 50.589844 21.382812 C 54.75 21.875 55.148438 22.285156 55.644531 26.460938 C 56.136719 22.273438 56.539062 21.875 60.722656 21.378906 C 56.539062 20.882812 56.136719 20.480469 55.644531 16.296875 Z M 55.644531 16.296875 " fill-opacity="1" fill-rule="nonzero"/></g><g clip-path="url(#db98cef5b3)"><path fill="#b83b66" d="M 43.476562 9.597656 C 42.769531 15.574219 42.195312 16.148438 36.21875 16.855469 C 36.230469 16.859375 36.242188 16.859375 36.253906 16.859375 C 42.195312 17.566406 42.769531 18.148438 43.476562 24.113281 C 44.183594 18.136719 44.757812 17.5625 50.734375 16.855469 C 44.757812 16.148438 44.183594 15.574219 43.476562 9.597656 Z M 43.476562 9.597656 " fill-opacity="1" fill-rule="nonzero"/></g><g clip-path="url(#3002e4ddb8)"><path fill="#ffd357" d="M 31.675781 2.898438 C 31.039062 8.277344 30.523438 8.792969 25.144531 9.429688 C 25.15625 9.433594 25.167969 9.433594 25.179688 9.433594 C 30.527344 10.070312 31.042969 10.59375 31.675781 15.960938 C 32.3125 10.582031 32.832031 10.066406 38.210938 9.429688 C 32.832031 8.792969 32.3125 8.277344 31.675781 2.898438 Z M 31.675781 2.898438 " fill-opacity="1" fill-rule="nonzero"/></g><g clip-path="url(#2ef92d899c)"><path fill="#ffd357" d="M 66.921875 7.8125 C 66.285156 13.191406 65.769531 13.710938 60.390625 14.347656 C 60.402344 14.347656 60.414062 14.347656 60.425781 14.351562 C 65.773438 14.984375 66.289062 15.511719 66.921875 20.878906 C 67.558594 15.5 68.074219 14.984375 73.453125 14.347656 C 68.074219 13.710938 67.558594 13.191406 66.921875 7.8125 Z M 66.921875 7.8125 " fill-opacity="1" fill-rule="nonzero"/></g><g clip-path="url(#0f0b7936fe)"><path fill="#f4e6ec" d="M 6.289062 9.597656 C 5.796875 13.78125 5.394531 14.183594 1.210938 14.679688 C 1.21875 14.679688 1.226562 14.679688 1.234375 14.683594 C 5.394531 15.175781 5.796875 15.585938 6.289062 19.757812 C 6.785156 15.574219 7.1875 15.175781 11.371094 14.679688 C 7.1875 14.183594 6.785156 13.78125 6.289062 9.597656 Z M 6.289062 9.597656 " fill-opacity="1" fill-rule="nonzero"/></g></svg>