<svg xmlns="http://www.w3.org/2000/svg" width="564" height="600" viewBox="0 0 564 600"><rect width="100%" height="100%" fill="#DDDDDD"/><path fill="#999999" d="M140.22 343.935q-7.84 0-12.02-4.42t-4.18-12.2v-33.52h-6.15q-1.17 0-1.98-.76-.82-.76-.82-2.28v-5.73l9.65-1.58 3.04-16.38q.29-1.17 1.11-1.82.82-.64 2.11-.64h7.49v18.9h16.03v10.29h-16.03v32.53q0 2.81 1.37 4.38 1.38 1.58 3.77 1.58 1.35 0 2.26-.32.9-.32 1.58-.67.67-.35 1.2-.67.52-.32 1.05-.32.64 0 1.05.32.41.32.88.96l4.33 7.02q-3.16 2.63-7.26 3.98-4.09 1.35-8.48 1.35Zm37.97-87.87v33.34q3.51-3.27 7.72-5.32 4.21-2.05 9.89-2.05 4.91 0 8.71 1.67 3.81 1.67 6.35 4.68 2.55 3.01 3.86 7.2 1.32 4.18 1.32 9.21v38.2h-14.45v-38.2q0-5.5-2.52-8.51-2.51-3.02-7.66-3.02-3.74 0-7.02 1.7-3.28 1.7-6.2 4.62v43.41h-14.45v-86.93h14.45Zm88.8 26.91h14.45v60.02h-8.83q-2.87 0-3.63-2.63l-.99-4.8q-3.69 3.74-8.14 6.06-4.44 2.31-10.47 2.31-4.91 0-8.68-1.67-3.78-1.67-6.35-4.71-2.58-3.04-3.89-7.23-1.32-4.18-1.32-9.21v-38.14h14.45v38.14q0 5.5 2.55 8.51 2.54 3.02 7.63 3.02 3.74 0 7.02-1.67 3.28-1.67 6.2-4.59v-43.41Zm43.17 60.02h-14.45v-60.02h8.84q2.81 0 3.68 2.63l.94 4.45q1.58-1.76 3.3-3.22 1.73-1.46 3.69-2.52 1.96-1.05 4.21-1.66 2.25-.62 4.95-.62 5.67 0 9.33 3.07 3.65 3.08 5.47 8.16 1.4-2.98 3.51-5.11 2.1-2.14 4.62-3.48 2.51-1.35 5.35-1.99 2.84-.65 5.7-.65 4.98 0 8.84 1.52 3.86 1.52 6.49 4.45 2.63 2.92 4.01 7.14 1.37 4.21 1.37 9.65v38.2h-14.45v-38.2q0-5.73-2.51-8.63-2.52-2.9-7.37-2.9-2.23 0-4.13.77-1.9.76-3.33 2.19-1.43 1.43-2.25 3.6-.82 2.16-.82 4.97v38.2h-14.51v-38.2q0-6.03-2.43-8.78-2.43-2.75-7.11-2.75-3.16 0-5.88 1.56-2.72 1.55-5.06 4.24v43.93Zm97.99-42.47v26.91q2.46 2.98 5.35 4.21 2.9 1.23 6.12 1.23 3.33 0 5.99-1.2 2.67-1.2 4.54-3.74 1.87-2.55 2.86-6.5 1-3.95 1-9.45 0-9.88-3.28-14.3-3.27-4.42-9.42-4.42-4.15 0-7.25 1.91-3.1 1.9-5.91 5.35Zm0-44.46v34.28q3.63-3.8 8.05-6.05 4.41-2.26 10.09-2.26 5.2 0 9.39 2.05 4.18 2.05 7.13 5.88 2.96 3.83 4.54 9.27 1.58 5.44 1.58 12.23 0 7.31-1.82 13.28-1.81 5.96-5.17 10.21-3.37 4.24-8.11 6.58-4.74 2.34-10.53 2.34-2.8 0-5.09-.56-2.28-.55-4.21-1.55-1.93-.99-3.54-2.43-1.61-1.43-3.07-3.18l-.64 4.03q-.35 1.52-1.2 2.17-.85.64-2.31.64h-9.54v-86.93h14.45Z"/></svg>